
        <svg xmlns="http://www.w3.org/2000/svg" xmlns:xlink="http://www.w3.org/1999/xlink" version="1.1" width="3182.4333702595577" height="714.4090779364271" viewBox="0 0 3182.4333702595577 714.4090779364271">
			
			<g transform="scale(9.121668512977875) translate(10, 10)">
				<defs id="SvgjsDefs8451"><linearGradient id="SvgjsLinearGradient8458"><stop id="SvgjsStop8459" stop-color="#b88746" offset="0"/><stop id="SvgjsStop8460" stop-color="#fdf5a6" offset="1"/></linearGradient></defs><g id="SvgjsG8452" featureKey="nameLeftFeature-0" transform="matrix(2.7731017024108797,0,0,2.7731017024108797,-0.055461319996532595,-7.194914365221276)" fill="#fff"><path d="M8 5.84 l6.06 14.16 l-2.24 0 l-1.42 -3.5 l-6.74 0 l-1.4 3.5 l-2.24 0 l6.24 -14.16 l1.74 0 z M4.34 14.82 l5.36 0 l-2.64 -6.5 l-0.04 0 z M16.86 17.48 c0.37334 0 0.68664 0.13342 0.93998 0.40008 s0.38 0.57332 0.38 0.91998 c0 0.38666 -0.13334 0.70332 -0.4 0.94998 s-0.57332 0.37 -0.91998 0.37 s-0.65332 -0.12666 -0.91998 -0.38 s-0.4 -0.56668 -0.4 -0.94002 s0.13334 -0.68668 0.4 -0.94002 s0.57332 -0.38 0.91998 -0.38 z"/></g><g id="SvgjsG8453" featureKey="inlineSymbolFeature-0" transform="matrix(1.7557801661487915,0,0,1.7557801661487915,68.22315053381179,-14.418466536876322)" fill="#fff"><g xmlns="http://www.w3.org/2000/svg"><polygon points="19.937,10.508 17.653,8.212 1.012,24.792 17.647,41.428 19.94,39.135 5.603,24.794  "/><polygon points="29.714,10.508 44.046,24.794 29.711,39.135 32.004,41.428 48.637,24.792 32.001,8.212  "/></g></g><g id="SvgjsG8454" featureKey="nameRightFeature-0" transform="matrix(2.9024213190316237,0,0,2.9024213190316237,157.1279876246816,-9.694348969467885)" fill="#fff"><path d="M16.270610169491526 19.61017 c0.13559 0.20339 0.034064 0.38983 -0.23712 0.38983 l-1.5763 0 c-0.47458 0 -0.88136 -0.44068 -1.0339 -0.69492 l-2.339 -3.5763 l-2.8475 0 l0 3.9322 c0 0.20339 -0.13559 0.33881 -0.32203 0.33881 l-1.7966 0 c-0.16949 0 -0.30508 -0.13543 -0.30508 -0.33881 l0 -12.898 c0 -0.16949 0.13559 -0.32203 0.32203 -0.32203 l5.4068 0 c2.7797 0 4.4915 2.5763 4.4915 4.6441 c0 1.6442 -0.98305 3.4576 -2.661 4.2373 z M8.237410169491525 8.78 l0.00033103 4.6102 l2.9659 0 c1.6102 0 2.3898 -1.1695 2.3898 -2.3559 c0 -1.1356 -0.79661 -2.2542 -2.3902 -2.2542 l-2.9659 0 z M20.372749152542372 6.441000000000001 l-1.6778 0 c-0.18644 0 -0.32203 0.15254 -0.32203 0.32203 l0 12.898 c0 0.18644 0.15254 0.33881 0.33898 0.33881 l1.678 0 c0.16933 0 0.32186 -0.16933 0.32186 -0.33881 l0 -12.898 c0 -0.16949 -0.16949 -0.32203 -0.33898 -0.32203 z M35.54179661016949 6.441000000000001 c0.18661 0 0.40712 0.15238 0.28847 0.38966 l-6.2203 13 c-0.067797 0.13559 -0.20339 0.25407 -0.37288 0.25407 l-0.13559 0 c-0.15254 0 -0.28814 -0.11848 -0.35593 -0.25407 l-6.2203 -13.017 c-0.11881 -0.22017 0.10153 -0.37271 0.28797 -0.37271 l2.2203 0 c0.16949 0 0.25424 0.15254 0.33898 0.33898 l3.7966 8.3559 l3.8136 -8.3559 c0.084746 -0.18644 0.15238 -0.33898 0.33898 -0.33898 l2.2202 0 z M46.203383050847464 8.78 l-6.1697 -0.00033103 l0 3.4068 l3.322 0 c0.18644 0 0.33898 0.15254 0.33898 0.33915 l0 1.6778 c0 0.20339 -0.13559 0.3222 -0.33898 0.3222 l-3.322 0 l0 3.1356 l6.1695 0 c0.18644 0 0.33881 0.15238 0.33881 0.33881 l0 1.6613 c0 0.18644 -0.15238 0.33881 -0.33881 0.33881 l-8.2542 0 c-0.18644 0 -0.33898 -0.15238 -0.33898 -0.33881 l0 -12.898 c0 -0.16949 0.13559 -0.32203 0.3222 -0.32203 l8.2712 0 c0.18644 0 0.33881 0.15254 0.33881 0.32203 l0 1.6949 c0 0.18644 -0.15238 0.32203 -0.33881 0.32203 z M59.11806779661018 19.61017 c0.13559 0.20339 0.034064 0.38983 -0.23712 0.38983 l-1.5763 0 c-0.47458 0 -0.88136 -0.44068 -1.0339 -0.69492 l-2.339 -3.5763 l-2.8475 0 l0 3.9322 c0 0.20339 -0.13559 0.33881 -0.32203 0.33881 l-1.7966 0 c-0.16949 0 -0.30508 -0.13543 -0.30508 -0.33881 l0 -12.898 c0 -0.16949 0.13559 -0.32203 0.32203 -0.32203 l5.4068 0 c2.7797 0 4.4915 2.5763 4.4915 4.6441 c0 1.6442 -0.98305 3.4576 -2.661 4.2373 z M51.084867796610176 8.78 l0.00033103 4.6102 l2.9659 0 c1.6102 0 2.3898 -1.1695 2.3898 -2.3559 c0 -1.1356 -0.79661 -2.2542 -2.3902 -2.2542 l-2.9659 0 z"/></g>
			</g>
		</svg>
	